<?xml version="1.0" encoding="UTF-8" standalone="no"?>
<!-- Generator: Adobe Illustrator 17.1.0, SVG Export Plug-In . SVG Version: 6.00 Build 0)  -->

<svg
   xmlns:i="&amp;#38;#38;ns_ai;"
   xmlns:dc="http://purl.org/dc/elements/1.1/"
   xmlns:cc="http://creativecommons.org/ns#"
   xmlns:rdf="http://www.w3.org/1999/02/22-rdf-syntax-ns#"
   xmlns:svg="http://www.w3.org/2000/svg"
   xmlns="http://www.w3.org/2000/svg"
   xmlns:sodipodi="http://sodipodi.sourceforge.net/DTD/sodipodi-0.dtd"
   xmlns:inkscape="http://www.inkscape.org/namespaces/inkscape"
   version="1.1"
   id="Layer_1"
   x="0px"
   y="0px"
   viewBox="0 0 215.94209 207.94227"
   enable-background="new 0 0 490.6 224.1"
   xml:space="preserve"
   inkscape:version="0.91 r13725"
   sodipodi:docname="icon2.svg"
   width="215.94209"
   height="207.94228"><metadata
     id="metadata324"><rdf:RDF><cc:Work
         rdf:about=""><dc:format>image/svg+xml</dc:format><dc:type
           rdf:resource="http://purl.org/dc/dcmitype/StillImage" /><dc:title></dc:title></cc:Work></rdf:RDF></metadata><defs
     id="defs322"><linearGradient
       id="SVGID_1_"
       gradientUnits="userSpaceOnUse"
       x1="110.6304"
       y1="2.8002"
       x2="110.6304"
       y2="205.90311"
       gradientTransform="translate(-9.5579016,-6.0998284)"><stop
         offset="0"
         style="stop-color:#FFFFFF"
         id="stop8" /><stop
         offset="1"
         style="stop-color:#00549E"
         id="stop10" /></linearGradient></defs><sodipodi:namedview
     pagecolor="#ffffff"
     bordercolor="#666666"
     borderopacity="1"
     objecttolerance="10"
     gridtolerance="10"
     guidetolerance="10"
     inkscape:pageopacity="0"
     inkscape:pageshadow="2"
     inkscape:window-width="1918"
     inkscape:window-height="1059"
     id="namedview320"
     showgrid="false"
     inkscape:zoom="3.6897541"
     inkscape:cx="85.633318"
     inkscape:cy="116.91592"
     inkscape:window-x="0"
     inkscape:window-y="19"
     inkscape:window-maximized="1"
     inkscape:current-layer="Layer_1"
     fit-margin-top="0"
     fit-margin-left="0"
     fit-margin-right="0"
     fit-margin-bottom="0" /><circle
     stroke-miterlimit="10"
     cx="101.0421"
     cy="106.90017"
     r="98.699997"
     id="circle12"
     style="fill:url(#SVGID_1_);stroke:#000000;stroke-width:4.68419981;stroke-linecap:round;stroke-miterlimit:10" /><path
     d="m 148.5421,170.50017 c -4.3,6.9 -23.8,12.1 -47.2,12.1 -23.400002,0 -42.800002,-5.2 -47.200002,-12.1 -5.6,2.2 -8.9,4.7 -8.9,7.5 0,7.7 25.1,13.9 56.000002,13.9 30.9,0 56,-6.2 56,-13.9 0.2,-2.8 -3.1,-5.4 -8.7,-7.5 z"
     id="path14"
     inkscape:connector-curvature="0"
     style="fill:#173f74" /><path
     d="m 101.4421,182.60017 c 23.4,0 42.8,-5.2 47.2,-12.1 -10,-3.8 -27.3,-6.4 -47.2,-6.4 -19.900002,0 -37.200002,2.6 -47.200002,6.4 4.3,6.8 23.8,12.1 47.200002,12.1 z"
     id="path16"
     inkscape:connector-curvature="0"
     style="fill:#00214c" /><path
     stroke-miterlimit="10"
     d="m 141.0421,135.10017 c 0,0 3.8,-3.7 10.2,-8.1 16.4,-11.1 11.9,-28.499998 7.9,-42.599998 -2.8,-10.1 10.8,-12.8 16,16.399998 5.2,28.7 -26.6,51.2 -35.1,51.2"
     id="path18"
     inkscape:connector-curvature="0"
     style="fill:#754c29;stroke:#000000;stroke-width:2.91939998;stroke-linecap:round;stroke-linejoin:round;stroke-miterlimit:10" /><path
     d="m 164.9421,79.100172 c 3.4,8.2 11.8,31.099998 0.2,45.699998 -11.5,14.5 -19.4,13.9 -19.4,13.9 l 1.1,11.1 c 12.3,-6.3 32.6,-25.6 28.4,-49 -2.8,-15.399998 -6.5,-20.499998 -10.3,-21.699998 z"
     id="path20"
     inkscape:connector-curvature="0"
     style="fill:#603913" /><path
     stroke-miterlimit="10"
     d="m 141.0421,135.10017 c 0,0 3.8,-3.7 10.2,-8.1 16.4,-11.1 11.9,-28.499998 7.9,-42.599998 -2.8,-10.1 10.8,-12.8 16,16.399998 5.2,28.7 -26.6,51.2 -35.1,51.2"
     id="path22"
     inkscape:connector-curvature="0"
     style="fill:none;stroke:#000000;stroke-width:2.91939998;stroke-linecap:round;stroke-linejoin:round;stroke-miterlimit:10" /><path
     stroke-miterlimit="10"
     d="m 148.8421,136.20017 c 0,29.7 -21.6,46.4 -48.1,46.4 -26.500002,0 -48.100002,-16.7 -48.100002,-46.4 0,-29.7 21.6,-76.099998 48.100002,-76.099998 26.5,0 48.1,46.399998 48.1,76.099998 z"
     id="path24"
     inkscape:connector-curvature="0"
     style="fill:#f7941e;stroke:#000000;stroke-width:2.76869988;stroke-linecap:round;stroke-miterlimit:10" /><path
     d="m 100.7421,60.100172 c -0.3,0 -0.6,0 -1.000002,0.1 20.700002,1.1 45.400002,47.799998 45.400002,74.899998 0,27.5 -20.7,42.8 -46.200002,42.8 -9.5,0 -18.2,-0.1 -25.4,-2.3 7.7,4.6 17,7 27.100002,7 26.6,0 48.1,-16.7 48.1,-46.4 0.1,-29.7 -21.4,-76.099998 -48,-76.099998 z"
     id="path26"
     inkscape:connector-curvature="0"
     style="fill:#f47729" /><path
     d="m 137.9421,100.70017 -7.6,6.7 c 0,0 8.6,-1.8 8.9,-3.4 0.4,-1.5 -1.3,-3.3 -1.3,-3.3 z"
     id="path28"
     inkscape:connector-curvature="0"
     style="fill:#f47729" /><path
     d="m 139.9421,106.30017 -8.8,6.7 c 0,0 9.9,-1.8 10.3,-3.4 0.4,-1.5 -1.5,-3.3 -1.5,-3.3 z"
     id="path30"
     inkscape:connector-curvature="0"
     style="fill:#f47729" /><path
     d="m 141.9421,112.20017 -10.3,7.8 c 0,0 11.6,-2.1 12.1,-3.9 0.5,-1.8 -1.8,-3.9 -1.8,-3.9 z"
     id="path32"
     inkscape:connector-curvature="0"
     style="fill:#f47729" /><path
     d="m 141.5421,157.80017 -11,-6.7 c 0,0 6.3,10 8.1,9.8 1.8,-0.2 2.9,-3.1 2.9,-3.1 z"
     id="path34"
     inkscape:connector-curvature="0"
     style="fill:#f47729" /><path
     d="m 146.3421,152.10017 -12.3,-4 c 0,0 8.4,8.3 10.1,7.7 1.8,-0.6 2.2,-3.7 2.2,-3.7 z"
     id="path36"
     inkscape:connector-curvature="0"
     style="fill:#f47729" /><path
     d="m 61.542098,100.70017 9,6.7 c 0,0 -10.1,-1.8 -10.5,-3.4 -0.5,-1.5 1.5,-3.3 1.5,-3.3 z"
     id="path38"
     inkscape:connector-curvature="0"
     style="fill:#f47729" /><path
     d="m 59.242098,106.30017 10.4,6.7 c 0,0 -11.8,-1.8 -12.3,-3.4 -0.5,-1.6 1.9,-3.3 1.9,-3.3 z"
     id="path40"
     inkscape:connector-curvature="0"
     style="fill:#f47729" /><path
     d="m 56.842098,112.20017 12.2,7.8 c 0,0 -13.8,-2.1 -14.3,-3.9 -0.6,-1.8 2.1,-3.9 2.1,-3.9 z"
     id="path42"
     inkscape:connector-curvature="0"
     style="fill:#f47729" /><path
     stroke-miterlimit="10"
     d="m 122.3421,128.80017 c 0,14.4 -8.1,27 -22.800002,27 -14.7,0 -22.8,-12.6 -22.8,-27 0,-14.4 8.1,-34.899998 22.8,-34.899998 14.700002,0 22.800002,20.499998 22.800002,34.899998 z"
     id="path44"
     inkscape:connector-curvature="0"
     style="fill:#ffffff;stroke:#000000;stroke-width:2.69339991;stroke-linecap:round;stroke-linejoin:round;stroke-miterlimit:10" /><path
     stroke-miterlimit="10"
     d="m 143.1421,42.600172 c -0.2,2.4 -4.7,-0.7 -6.2,1 l -31.5,-19.2 c 0.8,-2.2 1.9,-4.3 3.2,-6.3 6.6,-10.9000004 20.9,-21.9000004 28.1,-13.9000004 4.8,5.3 7.5,24.4000004 6.4,38.4000004 z"
     id="path46"
     inkscape:connector-curvature="0"
     style="fill:#754c29;stroke:#000000;stroke-width:2.91939998;stroke-miterlimit:10" /><path
     stroke-miterlimit="10"
     d="m 133.1421,33.100172 c -0.1,0.8 -13.3,-7 -13.3,-7 0.3,-0.7 0.6,-1.4 1.1,-2.1 2.2,-3.6 6.9,-9.2 9.4,-6 0.6,0.9 3.2,10.4 2.8,15.1 z"
     id="path48"
     inkscape:connector-curvature="0"
     style="stroke:#000000;stroke-width:2.91939998;stroke-miterlimit:10" /><path
     d="m 137.1421,4.9001716 -7.6,6.7000004 c 0,0 8.6,-1.8000004 8.9,-3.4000004 0.3,-1.6 -1.3,-3.3 -1.3,-3.3 z"
     id="path50"
     inkscape:connector-curvature="0"
     style="fill:#3c2415" /><path
     d="m 57.642098,43.600172 c 0.2,2.4 4.7,-0.7 6.2,1 l 31.5,-19.2 c -0.8,-2.2 -1.9,-4.3 -3.2,-6.3 -6.6,-11.0000004 -20.9,-22.0000004 -28,-14.0000004 -4.9,5.4000004 -7.6,24.5000004 -6.5,38.5000004 z"
     id="path52"
     inkscape:connector-curvature="0"
     style="fill:#f7941e" /><path
     d="m 62.542098,8.2001716 9,6.7000004 c 0,0 -10.1,-1.8 -10.5,-3.4 -0.5,-1.5 1.5,-3.3000004 1.5,-3.3000004 z"
     id="path54"
     inkscape:connector-curvature="0"
     style="fill:#f47729" /><path
     d="m 59.442098,14.400172 6.8,4.8 c 0,0 -7.7,-1.3 -8,-2.4 -0.3,-1.1 1.2,-2.4 1.2,-2.4 z"
     id="path56"
     inkscape:connector-curvature="0"
     style="fill:#f47729" /><path
     stroke-miterlimit="10"
     d="m 57.642098,43.600172 c 0.2,2.4 4.7,-0.7 6.2,1 l 31.5,-19.2 c -0.8,-2.2 -1.9,-4.3 -3.2,-6.3 -6.6,-11.0000004 -20.9,-22.0000004 -28,-14.0000004 -4.9,5.4000004 -7.6,24.5000004 -6.5,38.5000004 z"
     id="path58"
     inkscape:connector-curvature="0"
     style="fill:none;stroke:#000000;stroke-width:2.91939998;stroke-miterlimit:10" /><path
     stroke-miterlimit="10"
     d="m 67.542098,34.100172 c 0.1,0.8 13.3,-7 13.3,-7 -0.3,-0.7 -0.6,-1.4 -1.1,-2.1 -2.2,-3.6 -6.9,-9.2 -9.4,-6 -0.6,0.9 -3.1,10.4 -2.8,15.1 z"
     id="path60"
     inkscape:connector-curvature="0"
     style="stroke:#000000;stroke-width:2.91939998;stroke-miterlimit:10" /><path
     d="m 100.7421,41.300172 c -0.6,26.2 -9.500002,48.5 -22.900002,57.3 13.4,-8.8 22.900002,-31.1 22.900002,-57.3 z"
     id="path62"
     inkscape:connector-curvature="0"
     style="fill:none" /><g
     id="g64"
     transform="translate(-9.5579016,-6.0998284)"><path
       d="m 122.9,107.4 c 1.2,1.5 2.3,3.1 3.2,4.9 9.5,-2.5 17.1,-7.2 21.4,-13.1 -0.3,-0.7 -0.7,-1.3 -1,-2 -6.4,4.9 -14.5,8.5 -23.6,10.2 0,0 0,0 0,0 z"
       id="path66"
       inkscape:connector-curvature="0"
       style="fill:#603d19" /><path
       d="m 92.2,111.9 c 1,-1.7 2,-3.3 3.2,-4.7 -8.2,-1.8 -15.6,-5.1 -21.6,-9.5 -0.4,0.7 -0.7,1.5 -1.1,2.2 4.2,5.2 11.1,9.5 19.5,12 z"
       id="path68"
       inkscape:connector-curvature="0"
       style="fill:#603d19" /><path
       d="m 109.9,108.7 c -5,0 -9.9,-0.5 -14.5,-1.6 l 0,0 c -1.2,1.4 -2.3,3 -3.2,4.7 0,0 0,0 0,0 5.4,1.6 11.4,2.5 17.7,2.5 5.8,0 11.2,-0.7 16.2,-2.1 0,0 0,0 0,0 -1,-1.7 -2,-3.4 -3.2,-4.9 -4.1,1 -8.5,1.4 -13,1.4 z"
       id="path70"
       inkscape:connector-curvature="0"
       style="fill:#573819" /></g><path
     stroke-miterlimit="10"
     d="m 122.3421,128.80017 c 0,14.4 -8.1,27 -22.800002,27 -14.7,0 -22.8,-12.6 -22.8,-27 0,-14.4 8.1,-34.899998 22.8,-34.899998 14.700002,0 22.800002,20.499998 22.800002,34.899998 z"
     id="path72"
     inkscape:connector-curvature="0"
     style="fill:none;stroke:#000000;stroke-width:2.69339991;stroke-linecap:round;stroke-linejoin:round;stroke-miterlimit:10" /><path
     d="m 140.7421,88.000172 c -1.2,1.1 -2.4,2.1 -3.8,3.1 0.3,0.7 0.7,1.3 1,2 1.2,-1.6 2.2,-3.4 2.8,-5.1 z"
     id="path74"
     inkscape:connector-curvature="0"
     style="fill:#533414" /><path
     stroke-miterlimit="10"
     d="m 148.8421,136.20017 c 0,29.7 -21.6,46.4 -48.1,46.4 -26.500002,0 -48.100002,-16.7 -48.100002,-46.4 0,-29.7 21.6,-76.099998 48.100002,-76.099998 26.5,0 48.1,46.399998 48.1,76.099998 z"
     id="path76"
     inkscape:connector-curvature="0"
     style="fill:none;stroke:#000000;stroke-width:2.76869988;stroke-linecap:round;stroke-miterlimit:10" /><path
     stroke-miterlimit="10"
     d="m 136.5421,55.800172 c 0,-6.4 3.3,-12.1 8.4,-15.8 -9.4,-11 -25.7,-18.3 -44.2,-18.3 -0.6,0 -1.200002,0 -1.900002,0 1.500002,5.8 2.000002,12.5 1.900002,19.5 0,26.2 -9.500002,48.5 -22.900002,57.3 6.9,2.599998 14.7,3.999998 22.900002,3.999998 23.4,0 43.3,-11.699998 50.2,-27.899998 -8.4,-2.9 -14.4,-10.2 -14.4,-18.8 z"
     id="path78"
     inkscape:connector-curvature="0"
     style="fill:#f7941e;stroke:#000000;stroke-width:2.91939998;stroke-linecap:round;stroke-linejoin:round;stroke-miterlimit:10" /><path
     stroke-miterlimit="10"
     d="m 100.7421,41.300172 c 0,-6.8 -0.7,-13.4 -1.900002,-19.5 -28.3,0.7 -51,18.5 -51,40.4 0,16.1 12.2,29.9 29.9,36.5 13.5,-8.9 22.400002,-31.2 23.000002,-57.4 z"
     id="path80"
     inkscape:connector-curvature="0"
     style="fill:#754c29;stroke:#000000;stroke-width:2.91939998;stroke-linecap:round;stroke-linejoin:round;stroke-miterlimit:10" /><path
     d="m 133.2421,73.300172 c 0,-5.7 -4.3,-10.3 -9.5,-10.3 -3.8,0 -7,2.4 -8.6,5.8 8.3,2.3 13.9,6.6 13.9,12.4 0,0.3 0,0.5 -0.1,0.8 2.6,-1.9 4.3,-5.1 4.3,-8.7 z"
     id="path82"
     inkscape:connector-curvature="0"
     style="fill:#f47729" /><path
     stroke-miterlimit="10"
     d="m 98.942098,21.700172 c 1.200002,6.1 1.900002,12.7 1.900002,19.5 0.1,-6.9 -0.4,-13.6 -1.900002,-19.5 z"
     id="path84"
     inkscape:connector-curvature="0"
     style="fill:#754c29;stroke:#000000;stroke-width:2.91939998;stroke-linecap:round;stroke-linejoin:round;stroke-miterlimit:10" /><path
     stroke-miterlimit="10"
     d="m 144.9421,40.000172 c -5.1,3.7 -8.4,9.4 -8.4,15.8 0,8.6 6,16 14.4,19 1.7,-4 2.6,-8.2 2.6,-12.6 0,-8.2 -3.2,-15.9 -8.6,-22.2 z"
     id="path86"
     inkscape:connector-curvature="0"
     style="fill:#754c29;stroke:#000000;stroke-width:2.91939998;stroke-miterlimit:10" /><path
     d="m 52.242098,47.400172 9,6.7 c 0,0 -10.1,-1.8 -10.5,-3.4 -0.5,-1.4 1.5,-3.3 1.5,-3.3 z"
     id="path88"
     inkscape:connector-curvature="0"
     style="fill:#3c2415" /><path
     d="m 49.942098,53.100172 10.4,6.7 c 0,0 -11.8,-1.8 -12.3,-3.4 -0.4,-1.5 1.9,-3.3 1.9,-3.3 z"
     id="path90"
     inkscape:connector-curvature="0"
     style="fill:#3c2415" /><path
     d="m 98.042098,47.600172 c 0.8,5.8 -3.9,11.2 -10.7,12.2 -6.7,0.9 -12.9,-3 -13.7,-8.8 -0.8,-5.8 3.9,-11.2 10.7,-12.2 6.7,-1 12.9,3 13.7,8.8 z"
     id="path92"
     inkscape:connector-curvature="0" /><path
     d="m 95.242098,49.600172 c 0.6,4.2 -2.9,8.2 -7.8,8.9 -4.9,0.7 -9.3,-2.2 -9.9,-6.4 -0.6,-4.2 2.9,-8.2 7.8,-8.9 4.8,-0.7 9.3,2.2 9.9,6.4 z"
     id="path94"
     inkscape:connector-curvature="0"
     style="fill:#ffffff" /><ellipse
     transform="matrix(0.99194042,-0.12670516,0.12670516,0.99194042,0,0)"
     cx="79.156403"
     cy="61.727432"
     rx="3.3998616"
     ry="2.9998777"
     id="ellipse96" /><line
     stroke-miterlimit="10"
     x1="76.342102"
     y1="40.500172"
     x2="72.942101"
     y2="39.200172"
     id="line98"
     style="fill:none;stroke:#000000;stroke-width:1.94630003;stroke-linecap:round;stroke-miterlimit:10" /><line
     stroke-miterlimit="10"
     x1="79.042099"
     y1="38.200172"
     x2="74.942101"
     y2="35.300175"
     id="line100"
     style="fill:none;stroke:#000000;stroke-width:1.94630003;stroke-linecap:round;stroke-miterlimit:10" /><path
     d="m 105.7421,47.600172 c -0.8,5.8 3.9,11.2 10.7,12.2 6.7,0.9 12.9,-3 13.7,-8.8 0.8,-5.8 -3.9,-11.2 -10.7,-12.2 -6.8,-1 -12.9,3 -13.7,8.8 z"
     id="path102"
     inkscape:connector-curvature="0" /><path
     d="m 108.5421,49.600172 c -0.6,4.2 2.9,8.2 7.8,8.9 4.9,0.7 9.3,-2.2 9.9,-6.4 0.6,-4.2 -2.9,-8.2 -7.8,-8.9 -4.9,-0.7 -9.3,2.2 -9.9,6.4 z"
     id="path104"
     inkscape:connector-curvature="0"
     style="fill:#ffffff" /><ellipse
     transform="matrix(-0.99194042,-0.12670516,0.12670516,-0.99194042,0,0)"
     cx="-122.95551"
     cy="-35.91201"
     rx="3.3998616"
     ry="2.9998777"
     id="ellipse106" /><line
     stroke-miterlimit="10"
     x1="127.4421"
     y1="40.500172"
     x2="130.84209"
     y2="39.200172"
     id="line108"
     style="fill:none;stroke:#000000;stroke-width:1.94630003;stroke-linecap:round;stroke-miterlimit:10" /><line
     stroke-miterlimit="10"
     x1="124.7421"
     y1="38.200172"
     x2="128.84209"
     y2="35.300175"
     id="line110"
     style="fill:none;stroke:#000000;stroke-width:1.94630003;stroke-linecap:round;stroke-miterlimit:10" /><path
     d="m 129.0421,81.200172 c 0,8.7 -12.7,15.7 -28.4,15.7 -15.700002,0 -28.400002,-7 -28.400002,-15.7 0,-8.7 12.7,-14.2 28.400002,-14.2 15.7,0 28.4,5.5 28.4,14.2 z"
     id="path112"
     inkscape:connector-curvature="0"
     style="fill:#ffffff" /><path
     d="m 100.7421,93.900172 c -10.300002,0 -19.900002,-2.6 -28.500002,-12.7 0.7,10.6 13.6,15.3 28.200002,15.3 15.7,0 27,-6 28.4,-15.3 -8.1,8.8 -13.5,12.6 -28.1,12.7 z"
     id="path114"
     inkscape:connector-curvature="0"
     style="fill:#e6e7e8" /><path
     stroke-miterlimit="10"
     d="m 81.842098,80.200172 c 3.4,6.6 10.9,11.1 19.600002,11 8.4,-0.1 15.6,-4.5 18.9,-10.9"
     id="path116"
     inkscape:connector-curvature="0"
     style="fill:none;stroke:#000000;stroke-width:1.94630003;stroke-linecap:round;stroke-miterlimit:10" /><path
     stroke-miterlimit="10"
     d="m 129.0421,81.200172 c 0,8.7 -12.7,15.7 -28.4,15.7 -15.700002,0 -28.400002,-7 -28.400002,-15.7 0,-8.7 12.7,-14.2 28.400002,-14.2 15.7,0 28.4,5.5 28.4,14.2 z"
     id="path118"
     inkscape:connector-curvature="0"
     style="fill:none;stroke:#000000;stroke-width:2.91939998;stroke-linecap:round;stroke-miterlimit:10" /><line
     stroke-miterlimit="10"
     x1="101.0421"
     y1="72.900169"
     x2="101.0421"
     y2="91.800171"
     id="line120"
     style="fill:none;stroke:#000000;stroke-width:2.27819991;stroke-miterlimit:10" /><path
     d="m 109.4421,67.900172 c 0,4.6 -8.3,7.4 -8.3,7.4 0,0 -8.300002,-2.8 -8.300002,-7.4 0,-4.6 3.7,-4.1 8.300002,-4.1 4.6,0 8.3,-0.5 8.3,4.1 z"
     id="path122"
     inkscape:connector-curvature="0" /><ellipse
     cx="101.0421"
     cy="66.900169"
     rx="5.4000001"
     ry="0.89999998"
     id="ellipse124"
     style="fill:#a7a9ac" /><path
     d="m 129.2421,164.10017 c 0,4.1 -1.9,21.5 -12.3,20.2 -5.6,-0.7 -13.7,-9.5 -10.3,-11.8 3.6,-2.4 -3.6,-14.9 1.2,-11.8 4.8,3.1 21.4,-0.7 21.4,3.4 z"
     id="path126"
     inkscape:connector-curvature="0"
     style="fill:#f47729" /><path
     d="m 123.6421,179.50017 c 0,4.1 -3.9,5.5 -9.9,5.5 -6,0 -11,-3.3 -11,-7.4 0,-4.1 2.7,-7.5 7.9,-4.3 5,3.1 13,2.1 13,6.2 z"
     id="path128"
     inkscape:connector-curvature="0"
     style="fill:#ffffff" /><path
     d="m 113.0421,181.10017 c -3.8,-1.4 -7.2,-3.6 -9.9,-6.3 -0.3,0.7 -0.4,1.3 -0.4,2.1 0,4.5 5.3,8.1 11.8,8.1 3.1,0 5.9,-0.8 8,-2.2 -3.1,0 -6.3,-0.5 -9.5,-1.7 z"
     id="path160"
     inkscape:connector-curvature="0"
     style="fill:#e6e7e8" /><path
     stroke-miterlimit="10"
     d="m 107.9421,160.70017 c 0.1,3.2 0.5,6.3 1.2,9 -3.8,1.4 -6.3,4.1 -6.3,7.2 0,4.5 5.3,8.1 11.8,8.1 5.3,0 9.8,-2.4 11.3,-5.7 2,-4.8 4,-10.9 5.2,-18.8"
     id="path162"
     inkscape:connector-curvature="0"
     style="fill:none;stroke:#000000;stroke-width:2.43470001;stroke-linecap:round;stroke-miterlimit:10" /><path
     d="m 71.442098,164.10017 c 0,4.1 1.9,21.5 12.3,20.2 5.6,-0.7 13.7,-9.5 10.3,-11.8 -3.6,-2.4 2.2,-14.9 -2.6,-11.8 -4.8,3.1 -20,-0.7 -20,3.4 z"
     id="path164"
     inkscape:connector-curvature="0"
     style="fill:#754c29" /><path
     d="m 77.042098,179.50017 c 0,4.1 3.9,5.5 9.9,5.5 6.1,0 11,-3.3 11,-7.4 0,-4.1 -2.7,-7.5 -7.9,-4.3 -5,3.1 -13,2.1 -13,6.2 z"
     id="path166"
     inkscape:connector-curvature="0"
     style="fill:#ffffff" /><path
     d="m 88.642098,181.50017 c 3.8,-1.6 7,-4 9.6,-6.8 0.3,0.6 0.5,1.3 0.5,2 0.2,4.5 -4.9,8.4 -11.4,8.7 -3.1,0.2 -6,-0.5 -8.1,-1.8 3.1,-0.1 6.3,-0.8 9.4,-2.1 z"
     id="path168"
     inkscape:connector-curvature="0"
     style="fill:#e6e7e8" /><path
     stroke-miterlimit="10"
     d="m 92.842098,160.70017 c -0.1,3.2 -0.5,6.3 -1.2,9 3.8,1.4 6.3,4.1 6.3,7.2 0,4.5 -5.3,8.1 -11.8,8.1 -5.3,0 -9.8,-2.4 -11.3,-5.7 -2,-4.8 -4,-10.9 -5.2,-18.8"
     id="path170"
     inkscape:connector-curvature="0"
     style="fill:none;stroke:#000000;stroke-width:2.43470001;stroke-linecap:round;stroke-miterlimit:10" /><circle
     cx="118.1421"
     cy="75.900169"
     r="1.4"
     id="circle172"
     style="fill:#e6e7e8" /><circle
     cx="115.3421"
     cy="72.500168"
     r="1.4"
     id="circle174"
     style="fill:#e6e7e8" /><circle
     cx="114.4421"
     cy="77.400169"
     r="1.4"
     id="circle176"
     style="fill:#e6e7e8" /><circle
     cx="84.342102"
     cy="76.100166"
     r="1.4"
     id="circle178"
     style="fill:#e6e7e8" /><circle
     cx="88.142097"
     cy="77.400169"
     r="1.4"
     id="circle180"
     style="fill:#e6e7e8" /><circle
     cx="87.542099"
     cy="72.900169"
     r="1.4"
     id="circle182"
     style="fill:#e6e7e8" /><line
     stroke-miterlimit="10"
     x1="119.1421"
     y1="75.900169"
     x2="139.34209"
     y2="76.200172"
     id="line184"
     style="fill:none;stroke:#000000;stroke-width:1.94630003;stroke-linecap:round;stroke-miterlimit:10" /><line
     stroke-miterlimit="10"
     x1="116.3421"
     y1="72.400169"
     x2="135.34209"
     y2="64.900169"
     id="line186"
     style="fill:none;stroke:#000000;stroke-width:1.94630003;stroke-linecap:round;stroke-miterlimit:10" /><line
     stroke-miterlimit="10"
     x1="83.642097"
     y1="75.900169"
     x2="63.442097"
     y2="76.200172"
     id="line188"
     style="fill:none;stroke:#000000;stroke-width:1.94630003;stroke-linecap:round;stroke-miterlimit:10" /><line
     stroke-miterlimit="10"
     x1="86.442101"
     y1="72.400169"
     x2="67.442101"
     y2="64.900169"
     id="line190"
     style="fill:none;stroke:#000000;stroke-width:1.94630003;stroke-linecap:round;stroke-miterlimit:10" /><g
     id="g192"
     transform="translate(-9.5579016,-6.0998284)"><g
       id="g194"><path
         d="m 192,208.7 c -16.8,0 -30.4,-13.6 -30.4,-30.4 0,-16.8 13.6,-30.4 30.4,-30.4 16.8,0 30.4,13.6 30.4,30.4 0,16.8 -13.6,30.4 -30.4,30.4 z"
         id="path196"
         inkscape:connector-curvature="0"
         style="fill:#ef4136" /><path
         d="m 192,148.4 c 16.5,0 29.9,13.4 29.9,29.9 0,16.5 -13.4,29.9 -29.9,29.9 -16.5,0 -29.9,-13.4 -29.9,-29.9 0,-16.5 13.4,-29.9 29.9,-29.9 m 0,-1.1 c -17.1,0 -31,13.9 -31,31 0,17.1 13.9,31 31,31 17.1,0 31,-13.9 31,-31 0,-17.1 -13.9,-31 -31,-31 l 0,0 z"
         id="path198"
         inkscape:connector-curvature="0"
         style="fill:#ef4136" /></g><path
       stroke-miterlimit="10"
       d="m 165.5,167.8 c -0.1,0.2 13.6,-16.6 32.3,-17.9"
       id="path200"
       inkscape:connector-curvature="0"
       style="fill:none;stroke:#fbb040;stroke-width:1.43120003;stroke-linecap:round;stroke-miterlimit:10" /><path
       stroke-miterlimit="10"
       d="m 163.5,173.9 c 0,0 14.6,-22.1 39.1,-22.1"
       id="path202"
       inkscape:connector-curvature="0"
       style="fill:none;stroke:#fbb040;stroke-width:1.43120003;stroke-linecap:round;stroke-miterlimit:10" /><path
       stroke-miterlimit="10"
       d="m 163.5,177.8 c 0,0 15.6,-26.5 42.8,-23.9"
       id="path204"
       inkscape:connector-curvature="0"
       style="fill:none;stroke:#fbb040;stroke-width:1.43120003;stroke-linecap:round;stroke-miterlimit:10" /><path
       stroke-miterlimit="10"
       d="m 204.7,156 c 0,0 13.5,6.2 13.5,34.4"
       id="path206"
       inkscape:connector-curvature="0"
       style="fill:none;stroke:#fbb040;stroke-width:1.43120003;stroke-linecap:round;stroke-miterlimit:10" /><path
       stroke-miterlimit="10"
       d="m 200.7,155.5 c 0,0 15,4.5 15.6,37.5"
       id="path208"
       inkscape:connector-curvature="0"
       style="fill:none;stroke:#fbb040;stroke-width:1.43120003;stroke-linecap:round;stroke-miterlimit:10" /><path
       stroke-miterlimit="10"
       d="m 198.9,157 c -2.4,-0.9 17.1,5 14.9,39.5"
       id="path210"
       inkscape:connector-curvature="0"
       style="fill:none;stroke:#fbb040;stroke-width:1.43120003;stroke-linecap:round;stroke-miterlimit:10" /><path
       stroke-miterlimit="10"
       d="m 194.3,157 c 0,0 22.8,8.8 16.5,43.5"
       id="path212"
       inkscape:connector-curvature="0"
       style="fill:none;stroke:#fbb040;stroke-width:1.43120003;stroke-linecap:round;stroke-miterlimit:10" /><path
       stroke-miterlimit="10"
       d="m 193.4,158.5 c 0,0 -13.4,24.8 -13,45.3"
       id="path214"
       inkscape:connector-curvature="0"
       style="fill:none;stroke:#fbb040;stroke-width:1.43120003;stroke-linecap:round;stroke-miterlimit:10" /><path
       stroke-miterlimit="10"
       d="m 191.2,157.6 c 0,0 -13.7,25 -13.4,45.5"
       id="path216"
       inkscape:connector-curvature="0"
       style="fill:none;stroke:#fbb040;stroke-width:1.43120003;stroke-linecap:round;stroke-miterlimit:10" /><path
       stroke-miterlimit="10"
       d="m 195.3,160.1 c 0,0 -11.6,21.2 -12.5,44.7"
       id="path218"
       inkscape:connector-curvature="0"
       style="fill:none;stroke:#fbb040;stroke-width:1.43120003;stroke-linecap:round;stroke-miterlimit:10" /><path
       stroke-miterlimit="10"
       d="m 199.2,162.3 c 0,0 -12.8,23.6 -11.7,43.5"
       id="path220"
       inkscape:connector-curvature="0"
       style="fill:none;stroke:#fbb040;stroke-width:1.43120003;stroke-linecap:round;stroke-miterlimit:10" /><path
       stroke-miterlimit="10"
       d="m 197.2,161.2 c 0,0 -13.1,24.7 -11.9,44.6"
       id="path222"
       inkscape:connector-curvature="0"
       style="fill:none;stroke:#fbb040;stroke-width:1.43120003;stroke-linecap:round;stroke-miterlimit:10" /><path
       stroke-miterlimit="10"
       d="m 200.9,163.8 c 0,0 -12.6,23.4 -10.9,43.1"
       id="path224"
       inkscape:connector-curvature="0"
       style="fill:none;stroke:#fbb040;stroke-width:1.43120003;stroke-linecap:round;stroke-miterlimit:10" /><path
       stroke-miterlimit="10"
       d="m 205.4,169.7 c -0.9,-0.2 -3.1,-0.6 -4,-0.8"
       id="path226"
       inkscape:connector-curvature="0"
       style="fill:none;stroke:#fbb040;stroke-width:1.43120003;stroke-linecap:round;stroke-miterlimit:10" /><path
       stroke-miterlimit="10"
       d="m 208.1,177.8 c -1.9,-0.6 -7.3,-2.5 -9.2,-3"
       id="path228"
       inkscape:connector-curvature="0"
       style="fill:none;stroke:#fbb040;stroke-width:1.43120003;stroke-linecap:round;stroke-miterlimit:10" /><path
       stroke-miterlimit="10"
       d="m 209.2,180.5 c -2.8,-0.9 -8.4,-3 -11.3,-3.4"
       id="path230"
       inkscape:connector-curvature="0"
       style="fill:none;stroke:#fbb040;stroke-width:1.43120003;stroke-linecap:round;stroke-miterlimit:10" /><path
       stroke-miterlimit="10"
       d="m 209.8,183 c -3.6,-1.3 -8.1,-2.8 -11.9,-3.2"
       id="path232"
       inkscape:connector-curvature="0"
       style="fill:none;stroke:#fbb040;stroke-width:1.43120003;stroke-linecap:round;stroke-miterlimit:10" /><path
       stroke-miterlimit="10"
       d="m 209.8,185.5 c -4.1,-1.6 -9.3,-3.1 -13.5,-3.7"
       id="path234"
       inkscape:connector-curvature="0"
       style="fill:none;stroke:#fbb040;stroke-width:1.43120003;stroke-linecap:round;stroke-miterlimit:10" /><path
       stroke-miterlimit="10"
       d="m 209.8,188 c -3.7,-2.2 -10,-3 -14.5,-3.9"
       id="path236"
       inkscape:connector-curvature="0"
       style="fill:none;stroke:#fbb040;stroke-width:1.43120003;stroke-linecap:round;stroke-miterlimit:10" /><line
       stroke-miterlimit="10"
       x1="197.2"
       y1="186.3"
       x2="194.3"
       y2="187.7"
       id="line238"
       style="fill:none;stroke:#fbb040;stroke-width:1.43120003;stroke-linecap:round;stroke-miterlimit:10" /><path
       stroke-miterlimit="10"
       d="m 199.7,187 c 0,0 -6.2,3.6 -7,3.6"
       id="path240"
       inkscape:connector-curvature="0"
       style="fill:none;stroke:#fbb040;stroke-width:1.43120003;stroke-linecap:round;stroke-miterlimit:10" /><path
       stroke-miterlimit="10"
       d="m 203.4,187.7 c 0,0 -9.3,5.6 -10.6,5.3"
       id="path242"
       inkscape:connector-curvature="0"
       style="fill:none;stroke:#fbb040;stroke-width:1.43120003;stroke-linecap:round;stroke-miterlimit:10" /><path
       stroke-miterlimit="10"
       d="m 205.5,188.3 c 0,0 -10.3,7.3 -12.8,7.2"
       id="path244"
       inkscape:connector-curvature="0"
       style="fill:none;stroke:#fbb040;stroke-width:1.43120003;stroke-linecap:round;stroke-miterlimit:10" /><path
       stroke-miterlimit="10"
       d="m 186.8,158.8 c 0,0 0.7,1.1 1.1,1.3"
       id="path246"
       inkscape:connector-curvature="0"
       style="fill:none;stroke:#fbb040;stroke-width:1.43120003;stroke-linecap:round;stroke-miterlimit:10" /><path
       stroke-miterlimit="10"
       d="m 181.9,162 c 0,0 1.9,3.2 3,3.8"
       id="path248"
       inkscape:connector-curvature="0"
       style="fill:none;stroke:#fbb040;stroke-width:1.43120003;stroke-linecap:round;stroke-miterlimit:10" /><path
       stroke-miterlimit="10"
       d="m 177.8,165 c 0,0 3.9,5.3 5,5.7"
       id="path250"
       inkscape:connector-curvature="0"
       style="fill:none;stroke:#fbb040;stroke-width:1.43120003;stroke-linecap:round;stroke-miterlimit:10" /><path
       stroke-miterlimit="10"
       d="m 176.4,166.6 c 0,0 3.7,4.6 5.6,6.3"
       id="path252"
       inkscape:connector-curvature="0"
       style="fill:none;stroke:#fbb040;stroke-width:1.43120003;stroke-linecap:round;stroke-miterlimit:10" /><path
       stroke-miterlimit="10"
       d="m 172.3,169.3 c 0,0 6.3,6.8 8.1,7.1"
       id="path254"
       inkscape:connector-curvature="0"
       style="fill:none;stroke:#fbb040;stroke-width:1.43120003;stroke-linecap:round;stroke-miterlimit:10" /><path
       stroke-miterlimit="10"
       d="m 171.1,171.5 c 0,0 6.3,6.7 7.6,7.4"
       id="path256"
       inkscape:connector-curvature="0"
       style="fill:none;stroke:#fbb040;stroke-width:1.43120003;stroke-linecap:round;stroke-miterlimit:10" /><path
       stroke-miterlimit="10"
       d="m 172.1,176.3 c 0,0 -5.1,0.7 -5.7,0.6"
       id="path258"
       inkscape:connector-curvature="0"
       style="fill:none;stroke:#fbb040;stroke-width:1.43120003;stroke-linecap:round;stroke-miterlimit:10" /><path
       stroke-miterlimit="10"
       d="m 174,178.2 c 0,0 -8,1.1 -9.6,1.1"
       id="path260"
       inkscape:connector-curvature="0"
       style="fill:none;stroke:#fbb040;stroke-width:1.43120003;stroke-linecap:round;stroke-miterlimit:10" /><path
       stroke-miterlimit="10"
       d="m 178.7,181.8 c 0,0 -11.7,1.5 -14.3,2.3"
       id="path262"
       inkscape:connector-curvature="0"
       style="fill:none;stroke:#fbb040;stroke-width:1.43120003;stroke-linecap:round;stroke-miterlimit:10" /><path
       stroke-miterlimit="10"
       d="m 177.8,184.1 c 0,0 -10.3,1.6 -12.2,2.3"
       id="path264"
       inkscape:connector-curvature="0"
       style="fill:none;stroke:#fbb040;stroke-width:1.43120003;stroke-linecap:round;stroke-miterlimit:10" /><path
       stroke-miterlimit="10"
       d="m 176.9,187 c 0,0 -8.3,1.3 -10.6,1.5"
       id="path266"
       inkscape:connector-curvature="0"
       style="fill:none;stroke:#fbb040;stroke-width:1.43120003;stroke-linecap:round;stroke-miterlimit:10" /><path
       stroke-miterlimit="10"
       d="m 176.9,189.6 c 0,0 -9,2.1 -9.5,1.6"
       id="path268"
       inkscape:connector-curvature="0"
       style="fill:none;stroke:#fbb040;stroke-width:1.43120003;stroke-linecap:round;stroke-miterlimit:10" /><path
       stroke-miterlimit="10"
       d="m 176.4,191.8 c 0,0 -7.6,2.5 -8.1,2.2"
       id="path270"
       inkscape:connector-curvature="0"
       style="fill:none;stroke:#fbb040;stroke-width:1.43120003;stroke-linecap:round;stroke-miterlimit:10" /><path
       stroke-miterlimit="10"
       d="m 176.4,194.4 c 0,0 -5,2.1 -6,2.1"
       id="path272"
       inkscape:connector-curvature="0"
       style="fill:none;stroke:#fbb040;stroke-width:1.43120003;stroke-linecap:round;stroke-miterlimit:10" /><line
       stroke-miterlimit="10"
       x1="176.39999"
       y1="197.3"
       x2="172.10001"
       y2="199.2"
       id="line274"
       style="fill:none;stroke:#fbb040;stroke-width:1.43120003;stroke-linecap:round;stroke-miterlimit:10" /><line
       stroke-miterlimit="10"
       x1="163.5"
       y1="181.8"
       x2="176.39999"
       y2="179.89999"
       id="line276"
       style="fill:none;stroke:#fbb040;stroke-width:1.43120003;stroke-linecap:round;stroke-miterlimit:10" /><path
       stroke-miterlimit="10"
       d="m 191.1,149.2 c 0,0 -13.3,1.6 -23.6,13.6"
       id="path278"
       inkscape:connector-curvature="0"
       style="fill:none;stroke:#fbb040;stroke-width:1.43120003;stroke-linecap:round;stroke-miterlimit:10" /><path
       stroke-miterlimit="10"
       d="m 207.5,155.5 c 0,0 12.6,9.4 12.5,30.8"
       id="path280"
       inkscape:connector-curvature="0"
       style="fill:none;stroke:#fbb040;stroke-width:1.43120003;stroke-linecap:round;stroke-miterlimit:10" /><path
       stroke-miterlimit="10"
       d="m 179.8,163.8 c 0,0 2.9,3.2 3.6,4"
       id="path282"
       inkscape:connector-curvature="0"
       style="fill:none;stroke:#fbb040;stroke-width:1.43120003;stroke-linecap:round;stroke-miterlimit:10" /><path
       stroke-miterlimit="10"
       d="m 174.9,168.5 c 0,0 4.3,4.6 5.4,5.4"
       id="path284"
       inkscape:connector-curvature="0"
       style="fill:none;stroke:#fbb040;stroke-width:1.43120003;stroke-linecap:round;stroke-miterlimit:10" /><path
       stroke-miterlimit="10"
       d="m 183.1,160.7 c 0,0 2.5,3 3,3.2"
       id="path286"
       inkscape:connector-curvature="0"
       style="fill:none;stroke:#fbb040;stroke-width:1.43120003;stroke-linecap:round;stroke-miterlimit:10" /><path
       stroke-miterlimit="10"
       d="m 184.9,160.1 c 0,0 1.4,2 1.9,2.2"
       id="path288"
       inkscape:connector-curvature="0"
       style="fill:none;stroke:#fbb040;stroke-width:1.43120003;stroke-linecap:round;stroke-miterlimit:10" /><line
       stroke-miterlimit="10"
       x1="168.3"
       y1="174.5"
       x2="171.10001"
       y2="173.89999"
       id="line290"
       style="fill:none;stroke:#fbb040;stroke-width:1.43120003;stroke-linecap:round;stroke-miterlimit:10" /><path
       stroke-miterlimit="10"
       d="m 199.7,172.9 c 0,0 7.5,2 8.4,2.3"
       id="path292"
       inkscape:connector-curvature="0"
       style="fill:none;stroke:#fbb040;stroke-width:1.43120003;stroke-linecap:round;stroke-miterlimit:10" /><path
       stroke-miterlimit="10"
       d="m 200.2,170.7 c 0,0 5.8,1.4 6.2,1.7"
       id="path294"
       inkscape:connector-curvature="0"
       style="fill:none;stroke:#fbb040;stroke-width:1.43120003;stroke-linecap:round;stroke-miterlimit:10" /><ellipse
       cx="203.2"
       cy="167.3"
       rx="0.60000002"
       ry="0.5"
       id="ellipse296"
       style="fill:#fbb040" /><ellipse
       cx="189"
       cy="158"
       rx="0.80000001"
       ry="0.40000001"
       id="ellipse298"
       style="fill:#fbb040" /><line
       stroke-miterlimit="10"
       x1="174"
       y1="200.5"
       x2="175.8"
       y2="199.8"
       id="line300"
       style="fill:none;stroke:#fbb040;stroke-width:1.43120003;stroke-linecap:round;stroke-miterlimit:10" /><ellipse
       transform="matrix(-0.5767,-0.8169,0.8169,-0.5767,112.8038,462.9535)"
       cx="176.3"
       cy="202.3"
       rx="0.5"
       ry="0.89999998"
       id="ellipse302"
       style="fill:#fbb040" /><path
       stroke-miterlimit="10"
       d="m 192,198.2 c 0,0 13.8,-6.3 16,-8.7"
       id="path304"
       inkscape:connector-curvature="0"
       style="fill:none;stroke:#fbb040;stroke-width:1.43120003;stroke-linecap:round;stroke-miterlimit:10" /><path
       stroke-miterlimit="10"
       d="m 191.5,201.6 c 0,0 16.1,-7.2 18.3,-10.9"
       id="path306"
       inkscape:connector-curvature="0"
       style="fill:none;stroke:#fbb040;stroke-width:1.43120003;stroke-linecap:round;stroke-miterlimit:10" /><path
       stroke-miterlimit="10"
       d="m 191.5,204.1 c 0,0 17.2,-8.3 18.3,-10.6"
       id="path308"
       inkscape:connector-curvature="0"
       style="fill:none;stroke:#fbb040;stroke-width:1.43120003;stroke-linecap:round;stroke-miterlimit:10" /><path
       stroke-miterlimit="10"
       d="m 192,205.8 c 0,0 16.6,-6.7 17.7,-9.3"
       id="path310"
       inkscape:connector-curvature="0"
       style="fill:none;stroke:#fbb040;stroke-width:1.43120003;stroke-linecap:round;stroke-miterlimit:10" /><path
       stroke-miterlimit="10"
       d="m 194.3,207 c 0,0 14.2,-5.5 14.9,-6.8"
       id="path312"
       inkscape:connector-curvature="0"
       style="fill:none;stroke:#fbb040;stroke-width:1.43120003;stroke-linecap:round;stroke-miterlimit:10" /><path
       stroke-miterlimit="10"
       d="m 210.7,156 c 0,-0.2 7.5,4.6 10.5,23.3"
       id="path314"
       inkscape:connector-curvature="0"
       style="fill:none;stroke:#fbb040;stroke-width:1.43120003;stroke-linecap:round;stroke-miterlimit:10" /><g
       id="g316"><path
         d="m 192,148.4 c 16.5,0 29.9,13.4 29.9,29.9 0,16.5 -13.4,29.9 -29.9,29.9 -16.5,0 -29.9,-13.4 -29.9,-29.9 0,-16.5 13.4,-29.9 29.9,-29.9 m 0,-3.6 c -18.5,0 -33.5,15 -33.5,33.5 0,18.5 15,33.5 33.5,33.5 18.5,0 33.5,-15 33.5,-33.5 0,-18.5 -15,-33.5 -33.5,-33.5 l 0,0 z"
         id="path318"
         inkscape:connector-curvature="0" /></g></g><i:pgf
     id="adobe_illustrator_pgf" /></svg>